<svg width="20" height="20" viewBox="0 0 20 20" fill="none" xmlns="http://www.w3.org/2000/svg">
<g id="Icons">
<path id="Vector" d="M16.0306 10.5307L11.5306 15.0307C11.3897 15.1716 11.1986 15.2508 10.9994 15.2508C10.8001 15.2508 10.609 15.1716 10.4681 15.0307C10.3272 14.8898 10.2481 14.6987 10.2481 14.4995C10.2481 14.3002 10.3272 14.1091 10.4681 13.9682L13.6875 10.7501H4.5C4.30109 10.7501 4.11032 10.6711 3.96967 10.5304C3.82902 10.3898 3.75 10.199 3.75 10.0001C3.75 9.8012 3.82902 9.61043 3.96967 9.46978C4.11032 9.32913 4.30109 9.25011 4.5 9.25011H13.6875L10.4694 6.03011C10.3285 5.88921 10.2493 5.69812 10.2493 5.49886C10.2493 5.2996 10.3285 5.10851 10.4694 4.96761C10.6103 4.82671 10.8014 4.74756 11.0006 4.74756C11.1999 4.74756 11.391 4.82671 11.5319 4.96761L16.0319 9.46761C16.1018 9.53738 16.1573 9.62028 16.1951 9.71155C16.2329 9.80281 16.2523 9.90065 16.2522 9.99943C16.252 10.0982 16.2324 10.196 16.1944 10.2872C16.1564 10.3784 16.1007 10.4611 16.0306 10.5307Z" fill="black"/>
</g>
</svg>
